<?xml version="1.0" standalone="no"?>
<!DOCTYPE svg PUBLIC "-//W3C//DTD SVG 20010904//EN"
 "http://www.w3.org/TR/2001/REC-SVG-20010904/DTD/svg10.dtd">
<svg version="1.0" xmlns="http://www.w3.org/2000/svg"
 width="3589.000000pt" height="1044.000000pt" viewBox="0 0 3589.000000 1044.000000"
 preserveAspectRatio="xMidYMid meet">

<g transform="translate(0.000000,1044.000000) scale(0.100000,-0.100000)"
fill="#000000" stroke="none">
<path d="M17076 9439 l-26 -20 0 -4195 0 -4195 25 -24 24 -25 641 0 641 0 24
25 25 24 0 4191 0 4191 -25 24 -24 25 -639 0 c-632 0 -640 0 -666 -21z"/>
<path d="M30382 9453 c-7 -3 -19 -18 -27 -33 -13 -26 -15 -538 -15 -4200 0
-3152 3 -4177 12 -4193 6 -12 18 -27 27 -34 23 -18 1289 -18 1312 0 39 30 39
37 39 731 l0 675 33 38 c63 73 990 1068 1002 1075 6 4 16 4 22 0 6 -4 359
-565 783 -1247 424 -682 781 -1250 792 -1262 l21 -23 728 0 727 0 26 31 c29
34 32 50 15 82 -7 12 -490 794 -1075 1738 -685 1105 -1064 1726 -1064 1742 0
15 15 43 38 69 20 24 473 525 1006 1113 533 589 987 1089 1008 1112 47 52 49
84 9 124 l-29 29 -744 0 c-570 0 -748 -3 -766 -13 -13 -6 -560 -597 -1215
-1312 -1154 -1258 -1194 -1300 -1231 -1303 -29 -3 -44 2 -62 19 l-24 22 0
2483 0 2482 -26 31 -26 31 -641 -1 c-353 0 -648 -3 -655 -6z"/>
<path d="M13425 7090 c-1184 -57 -2155 -646 -2639 -1600 -177 -348 -278 -694
-328 -1125 -16 -139 -16 -616 0 -750 77 -637 281 -1150 634 -1598 96 -121 319
-345 438 -441 370 -295 855 -517 1338 -610 270 -52 374 -61 722 -61 348 1 478
11 750 61 682 125 1314 431 1742 842 95 93 111 113 111 139 0 18 -6 40 -14 49
-8 10 -209 185 -447 391 -501 432 -461 409 -564 316 -396 -355 -925 -553
-1484 -553 -478 0 -915 162 -1255 465 -252 225 -439 571 -513 951 -90 460 -36
928 150 1323 226 478 656 807 1198 916 693 139 1372 -47 1856 -510 87 -84 103
-95 134 -95 41 0 8 -27 539 432 360 313 367 319 367 356 0 31 -9 47 -56 100
-80 90 -240 231 -375 332 -628 470 -1456 710 -2304 670z"/>
<path d="M22005 7089 c-669 -37 -1316 -308 -1808 -756 -484 -442 -807 -1080
-911 -1803 -52 -362 -45 -800 18 -1165 85 -485 292 -958 585 -1335 90 -116
304 -335 429 -438 436 -359 981 -586 1603 -668 167 -22 564 -30 759 -15 874
66 1601 393 2128 957 97 103 112 130 94 169 -18 38 -893 795 -920 795 -16 0
-54 -31 -125 -103 -287 -291 -639 -473 -1062 -548 -144 -26 -461 -31 -615 -10
-587 79 -1028 370 -1293 851 -72 131 -157 362 -157 427 0 18 9 38 23 51 l23
22 2171 0 c2053 0 2172 1 2192 18 30 23 38 66 52 271 36 522 -30 1015 -197
1471 -56 152 -205 444 -296 581 -427 639 -1076 1050 -1868 1183 -252 43 -565
60 -825 45z m628 -1268 c319 -64 578 -210 780 -440 130 -148 248 -356 316
-559 37 -113 38 -136 6 -167 l-24 -25 -1456 0 -1456 0 -24 25 c-32 31 -31 45
6 152 91 256 262 512 445 664 215 180 456 296 715 348 148 29 152 29 379 26
162 -2 228 -7 313 -24z"/>
<path d="M29120 7083 c-314 -31 -654 -141 -937 -303 -257 -148 -497 -353 -697
-597 -37 -46 -72 -83 -77 -83 -5 0 -9 180 -9 434 l0 435 -26 20 c-26 21 -34
21 -666 21 l-639 0 -24 -25 -25 -24 0 -2966 0 -2966 25 -24 24 -25 639 0 c628
0 640 0 665 20 l26 21 4 1507 c3 1376 5 1517 21 1616 96 603 398 1037 879
1266 272 130 541 179 902 165 275 -12 271 -12 294 10 21 18 21 25 21 742 0
710 0 723 -20 743 -19 19 -32 20 -182 18 -90 0 -179 -3 -198 -5z"/>
<path d="M5080 6843 c-428 -42 -835 -252 -1099 -566 -531 -633 -516 -1539 38
-2157 127 -143 314 -280 503 -370 517 -246 1120 -202 1603 117 602 399 867
1162 644 1853 -177 547 -634 964 -1194 1089 -153 34 -357 48 -495 34z"/>
<path d="M3580 2619 c-50 -19 -110 -76 -693 -658 -722 -720 -692 -684 -692
-831 0 -72 4 -92 27 -135 35 -66 71 -99 203 -182 981 -619 2115 -892 3275
-787 804 73 1588 335 2273 762 171 107 210 140 245 206 23 44 27 63 27 136 0
147 30 111 -692 831 -611 610 -641 638 -698 659 -49 18 -75 21 -145 18 -79 -4
-94 -8 -217 -67 -305 -143 -568 -221 -903 -267 -157 -22 -546 -25 -700 -6
-339 43 -631 127 -935 270 -136 64 -142 66 -230 69 -73 3 -101 -1 -145 -18z"/>
</g>
</svg>
